<svg xmlns="http://www.w3.org/2000/svg" width="199.7" height="108" viewBox="0 0 199.7 108"><style>.a{fill:#00A4E4;}</style><path d="M51.6 40.4l9 20.6H42.2L51.6 40.4zM50 23.7L21.8 84.3h9.9l6.8-14.7h26L70.7 84.3h10L53.5 23.7H50z" class="a"/><polygon points="99.4 84.3 90.3 84.3 90.3 23.7 99.4 23.7 99.4 80.7 " class="a"/><path d="M147.4 52.8h25.1v2c0 4.6-0.5 8.6-1.6 12.1 -1 3.2-2.8 6.3-5.3 9.1 -5.6 6.3-12.8 9.5-21.5 9.5 -8.5 0-15.7-3.1-21.8-9.2 -6-6.2-9.1-13.5-9.1-22.1 0-8.8 3.1-16.3 9.2-22.4 6.2-6.2 13.6-9.2 22.5-9.2 4.7 0 9.2 1 13.3 2.9 3.9 1.9 7.8 5.1 11.6 9.4l-6.5 6.2c-5-6.6-11-9.9-18.2-9.9 -6.4 0-11.8 2.2-16.1 6.6 -4.3 4.3-6.5 9.8-6.5 16.3 0 6.8 2.4 12.3 7.3 16.7 4.5 4.1 9.4 6.1 14.7 6.1 4.5 0 8.5-1.5 12.1-4.5 3.6-3.1 5.6-6.7 6-11h-15.1V52.8z" class="a"/><path d="M8.3 8.3h183.1v91.3H8.3V8.3zM0 108h199.7V0H0V108z" class="a"/></svg>