<svg xmlns="http://www.w3.org/2000/svg" width="35" height="20" viewBox="0 0 35 20"><style>  .a{fill:#FFF;}</style><path d="M9 7.6l1.6 3.6H7.4L9 7.6zM8.8 4.7L3.8 15.3h1.7l1.2-2.6h4.6l1.1 2.6h1.8L9.4 4.7H8.8z" class="a"/><polygon points="17.4 15.3 15.8 15.3 15.8 4.7 17.4 4.7 17.4 14.7 " class="a"/><path d="M25.8 9.8h4.4v0.4c0 0.8-0.1 1.5-0.3 2.1-0.2 0.6-0.5 1.1-0.9 1.6-1 1.1-2.2 1.7-3.8 1.7-1.5 0-2.8-0.5-3.8-1.6-1.1-1.1-1.6-2.4-1.6-3.9 0-1.5 0.5-2.8 1.6-3.9 1.1-1.1 2.4-1.6 3.9-1.6 0.8 0 1.6 0.2 2.3 0.5 0.7 0.3 1.4 0.9 2 1.6l-1.1 1.1c-0.9-1.2-1.9-1.7-3.2-1.7-1.1 0-2.1 0.4-2.8 1.2-0.8 0.8-1.1 1.7-1.1 2.9 0 1.2 0.4 2.2 1.3 2.9 0.8 0.7 1.7 1.1 2.6 1.1 0.8 0 1.5-0.3 2.1-0.8 0.6-0.5 1-1.2 1.1-1.9h-2.7V9.8z" class="a"/><path d="M1.4 2h32.1v16H1.4V2zM0 19.5H35V0.5H0V19.5z" class="a"/></svg>